<svg width="72" height="73" viewBox="0 0 72 73" fill="none" xmlns="http://www.w3.org/2000/svg">
<g clip-path="url(#clip0_46_2187)">
<rect y="0.925781" width="72" height="72" rx="12" fill="#C70039"/>
<path d="M-3.56496 42.7232C-22.7828 40.8901 -27.1307 65.3514 -25.0111 72.48C-7.34761 111.47 117.71 35.0545 102.166 18.2512C86.622 1.44793 69.1704 6.9348 59.2788 29.0846C49.3873 51.2344 20.4574 45.0145 -3.56496 42.7232Z" fill="#B50034"/>
<path d="M15.2281 60.9629C-1.91259 56.9715 -10.8615 73.2864 6.88627 86.305C71.6761 133.831 109.243 67.8748 109.243 45.8524C109.243 21.2286 68.9769 -5.71887 66.5271 28.578C65.4362 43.8501 44.4792 67.7744 15.2281 60.9629Z" fill="#8D0028"/>
<path d="M25.5 35.4258L27.75 28.6758H44.25L46.5 35.4258M44.25 42.9258C43.6533 42.9258 43.081 42.6887 42.659 42.2668C42.2371 41.8448 42 41.2725 42 40.6758C42 40.079 42.2371 39.5067 42.659 39.0848C43.081 38.6628 43.6533 38.4258 44.25 38.4258C44.8467 38.4258 45.419 38.6628 45.841 39.0848C46.2629 39.5067 46.5 40.079 46.5 40.6758C46.5 41.2725 46.2629 41.8448 45.841 42.2668C45.419 42.6887 44.8467 42.9258 44.25 42.9258ZM27.75 42.9258C27.1533 42.9258 26.581 42.6887 26.159 42.2668C25.7371 41.8448 25.5 41.2725 25.5 40.6758C25.5 40.079 25.7371 39.5067 26.159 39.0848C26.581 38.6628 27.1533 38.4258 27.75 38.4258C28.3467 38.4258 28.919 38.6628 29.341 39.0848C29.7629 39.5067 30 40.079 30 40.6758C30 41.2725 29.7629 41.8448 29.341 42.2668C28.919 42.6887 28.3467 42.9258 27.75 42.9258ZM46.38 27.9258C46.08 27.0558 45.24 26.4258 44.25 26.4258H27.75C26.76 26.4258 25.92 27.0558 25.62 27.9258L22.5 36.9258V48.9258C22.5 49.3236 22.658 49.7051 22.9393 49.9864C23.2206 50.2677 23.6022 50.4258 24 50.4258H25.5C25.8978 50.4258 26.2794 50.2677 26.5607 49.9864C26.842 49.7051 27 49.3236 27 48.9258V47.4258H45V48.9258C45 49.3236 45.158 49.7051 45.4393 49.9864C45.7206 50.2677 46.1022 50.4258 46.5 50.4258H48C48.3978 50.4258 48.7794 50.2677 49.0607 49.9864C49.342 49.7051 49.5 49.3236 49.5 48.9258V36.9258L46.38 27.9258Z" fill="white"/>
</g>
<defs>
<clipPath id="clip0_46_2187">
<rect y="0.925781" width="72" height="72" rx="12" fill="white"/>
</clipPath>
</defs>
</svg>
