<svg width="49" height="48" viewBox="0 0 49 48" fill="none" xmlns="http://www.w3.org/2000/svg">
<g clip-path="url(#clip0_34_5875)">
<rect x="0.599609" width="48" height="48" rx="8" fill="#C70039"/>
<path d="M-1.77703 27.8649C-14.5889 26.6429 -17.4875 42.9504 -16.0744 47.7028C-4.2988 73.6961 79.0728 22.7525 68.7102 11.5503C58.3476 0.348096 46.7132 4.00601 40.1188 18.7725C33.5245 33.5391 14.2378 29.3925 -1.77703 27.8649Z" fill="#B50034"/>
<path d="M10.7517 40.0247C-0.675452 37.3638 -6.64136 48.2404 5.19046 56.9195C48.3837 88.6037 73.4283 44.6327 73.4283 29.9511C73.4283 13.5352 46.5842 -4.42977 44.951 18.4348C44.2238 28.6162 30.2524 44.5657 10.7517 40.0247Z" fill="#8D0028"/>
<g clip-path="url(#clip1_34_5875)">
<path d="M24.5486 12C20.9086 12 17.8386 12.201 17.3806 12.468C16.5806 12.741 15.9786 14.558 15.9766 16.714V17.785H15.7586C15.7367 17.7355 15.707 17.6899 15.6706 17.65C15.7647 17.5411 15.8165 17.4019 15.8166 17.258V16.714C15.8293 16.5867 15.7918 16.4595 15.712 16.3596C15.6322 16.2596 15.5165 16.1948 15.3896 16.179H14.5316C14.4037 16.1946 14.2871 16.2598 14.207 16.3607C14.1269 16.4616 14.0898 16.5899 14.1036 16.718V16.716V17.26C14.1036 17.41 14.1586 17.548 14.2496 17.653L14.2486 17.652C14.1545 17.7609 14.1027 17.9001 14.1026 18.044V20.73C14.1013 20.7453 14.1006 20.7613 14.1006 20.778C14.1006 21.028 14.2876 21.235 14.5296 21.265H15.3886C15.469 21.2609 15.5466 21.2337 15.612 21.1867C15.6774 21.1397 15.728 21.0749 15.7576 21L15.7586 20.997H15.9766V25.819C15.9766 26.01 16.1816 26.187 16.5126 26.282V26.908C16.0396 26.969 15.7126 27.182 15.7126 27.426V32.786C15.6788 33.4503 15.8697 34.1065 16.2546 34.649L16.2486 34.64V35.561C16.2486 35.804 16.4456 36.001 16.6886 36.001H18.4866C18.6033 36.001 18.7152 35.9546 18.7977 35.8721C18.8802 35.7896 18.9266 35.6777 18.9266 35.561V34.93H30.1736V35.561C30.1736 35.804 30.3706 36.001 30.6136 36.001H32.4116C32.4694 36.001 32.5266 35.9896 32.58 35.9675C32.6334 35.9454 32.6819 35.913 32.7227 35.8721C32.7636 35.8313 32.796 35.7828 32.8181 35.7294C32.8402 35.676 32.8516 35.6188 32.8516 35.561V34.641C33.2337 34.0986 33.4224 33.4436 33.3876 32.781V32.788V27.428C33.3876 27.184 33.0566 26.971 32.5876 26.91V26.284C32.9186 26.189 33.1226 26.012 33.1236 25.821V21.001H33.3416C33.4016 21.153 33.5436 21.26 33.7106 21.269H34.5656C34.6935 21.2534 34.81 21.1882 34.8902 21.0873C34.9703 20.9864 35.0074 20.8581 34.9936 20.73V20.732V18.046C34.9938 17.9017 34.9419 17.7622 34.8476 17.653L34.8486 17.654C34.9427 17.5451 34.9945 17.406 34.9946 17.262V16.72C35.0073 16.5927 34.9698 16.4655 34.89 16.3656C34.8102 16.2656 34.6945 16.2008 34.5676 16.185H33.7086C33.5807 16.2006 33.4641 16.2658 33.384 16.3667C33.3039 16.4676 33.2668 16.5959 33.2806 16.724V16.722V17.266C33.2806 17.416 33.3356 17.554 33.4266 17.659L33.4256 17.658C33.391 17.6977 33.3617 17.7417 33.3386 17.789L33.3376 17.792H33.1196V16.716C33.1196 14.549 32.5116 12.724 31.7056 12.465C31.2156 12.199 28.1606 12.002 24.5486 12.002V12ZM17.2006 15.107H31.8956C32.1546 15.107 32.3706 15.291 32.4206 15.536L32.4216 15.539C32.5236 16.049 32.5816 16.636 32.5816 17.237V17.275V17.273V21C32.5816 21.296 32.3416 21.536 32.0456 21.536H17.0486C16.9064 21.536 16.7701 21.4795 16.6696 21.379C16.5691 21.2785 16.5126 21.1422 16.5126 21V17.238C16.5133 16.636 16.5696 16.0507 16.6816 15.482L16.6726 15.539C16.6967 15.4172 16.7623 15.3076 16.8582 15.2288C16.9541 15.15 17.0744 15.107 17.1986 15.107H17.2006ZM17.8516 26.893H18.9996C19.1426 26.893 19.2586 27.005 19.2666 27.146V27.147L19.4576 30.629V30.643C19.4576 30.791 19.3376 30.911 19.1896 30.911H17.8516C17.7807 30.9105 17.7128 30.8821 17.6627 30.8319C17.6125 30.7818 17.5841 30.7139 17.5836 30.643V27.161C17.5836 27.013 17.7036 26.893 17.8516 26.893ZM30.0966 26.893H31.2446C31.3926 26.893 31.5126 27.013 31.5126 27.161V30.64C31.5126 30.788 31.3926 30.908 31.2446 30.908H29.9056C29.8347 30.9075 29.7668 30.8791 29.7167 30.8289C29.6665 30.7788 29.6381 30.7109 29.6376 30.64V30.625L29.8286 27.144C29.8386 27.004 29.9546 26.894 30.0956 26.894L30.0966 26.893ZM20.1286 27.533H28.9686C29.0426 27.533 29.1026 27.593 29.1026 27.667V27.827C29.1026 27.901 29.0426 27.961 28.9686 27.961H20.1286C20.093 27.961 20.059 27.9469 20.0338 27.9218C20.0087 27.8966 19.9946 27.8625 19.9946 27.827V27.667C19.9946 27.593 20.0546 27.533 20.1286 27.533ZM20.1816 28.497H28.9146C28.9886 28.497 29.0486 28.557 29.0486 28.631V28.791C29.0486 28.865 28.9886 28.925 28.9146 28.925H20.1816C20.146 28.925 20.112 28.9109 20.0868 28.8858C20.0617 28.8606 20.0476 28.8265 20.0476 28.791V28.631C20.0476 28.557 20.1076 28.497 20.1816 28.497ZM20.2356 29.461H28.8616C28.9356 29.461 28.9956 29.521 28.9956 29.595V29.755C28.9956 29.829 28.9356 29.889 28.8616 29.889H20.2356C20.2012 29.889 20.1681 29.8757 20.1433 29.8518C20.1185 29.828 20.1039 29.7954 20.1026 29.761V29.601C20.1026 29.527 20.1626 29.467 20.2366 29.467L20.2356 29.461ZM20.2896 30.425H28.8076C28.8816 30.425 28.9416 30.485 28.9416 30.559V30.719C28.9416 30.793 28.8816 30.853 28.8076 30.853H20.2896C20.254 30.853 20.22 30.8389 20.1948 30.8138C20.1697 30.7886 20.1556 30.7545 20.1556 30.719V30.559C20.1556 30.485 20.2156 30.425 20.2896 30.425Z" fill="white"/>
</g>
</g>
<defs>
<clipPath id="clip0_34_5875">
<rect x="0.599609" width="48" height="48" rx="8" fill="white"/>
</clipPath>
<clipPath id="clip1_34_5875">
<rect width="21" height="24" fill="white" transform="translate(14.0996 12)"/>
</clipPath>
</defs>
</svg>
