<svg width="49" height="48" viewBox="0 0 49 48" fill="none" xmlns="http://www.w3.org/2000/svg">
<g clip-path="url(#clip0_34_5850)">
<rect x="0.800049" width="48" height="48" rx="8" fill="#C70039"/>
<path d="M-1.57659 27.8649C-14.3885 26.6429 -17.2871 42.9504 -15.874 47.7028C-4.09836 73.6961 79.2732 22.7525 68.9106 11.5503C58.5481 0.348096 46.9136 4.00601 40.3193 18.7725C33.7249 33.5391 14.4383 29.3925 -1.57659 27.8649Z" fill="#B50034"/>
<path d="M10.9521 40.0247C-0.475012 37.3638 -6.44092 48.2404 5.39089 56.9195C48.5841 88.6037 73.6287 44.6327 73.6288 29.9511C73.6288 13.5352 46.7847 -4.42977 45.1514 18.4348C44.4242 28.6162 30.4528 44.5657 10.9521 40.0247Z" fill="#8D0028"/>
<g clip-path="url(#clip1_34_5850)">
<path d="M16.8 17C15.6969 17 14.8 17.8969 14.8 19V28.5C14.8 29.8813 15.9188 31 17.3 31C18.1188 31 18.8438 30.6062 19.3 30C19.7563 30.6062 20.4813 31 21.3 31C22.6813 31 23.8 29.8813 23.8 28.5C23.8 28.3281 23.7813 28.1625 23.75 28H28.85C28.8188 28.1625 28.8 28.3281 28.8 28.5C28.8 29.8813 29.9188 31 31.3 31C32.6813 31 33.8 29.8813 33.8 28.5C33.8 28.3281 33.7813 28.1625 33.75 28H33.8C34.3532 28 34.8 27.5531 34.8 27V24.1781C34.8 23.8906 34.7 23.6094 34.5188 23.3875L32.6813 21.1438C32.35 20.7375 31.8532 20.5031 31.3282 20.5031L29.8 20.5V19C29.8 17.8969 28.9032 17 27.8 17H16.8ZM33.0813 24H29.8V22H31.325C31.4 22 31.4719 22.0344 31.5188 22.0906L33.0813 24ZM31.3 27.5C31.5653 27.5 31.8196 27.6054 32.0072 27.7929C32.1947 27.9804 32.3 28.2348 32.3 28.5C32.3 28.7652 32.1947 29.0196 32.0072 29.2071C31.8196 29.3946 31.5653 29.5 31.3 29.5C31.0348 29.5 30.7805 29.3946 30.5929 29.2071C30.4054 29.0196 30.3 28.7652 30.3 28.5C30.3 28.2348 30.4054 27.9804 30.5929 27.7929C30.7805 27.6054 31.0348 27.5 31.3 27.5ZM20.3 28.5C20.3 28.2348 20.4054 27.9804 20.5929 27.7929C20.7805 27.6054 21.0348 27.5 21.3 27.5C21.5653 27.5 21.8196 27.6054 22.0072 27.7929C22.1947 27.9804 22.3 28.2348 22.3 28.5C22.3 28.7652 22.1947 29.0196 22.0072 29.2071C21.8196 29.3946 21.5653 29.5 21.3 29.5C21.0348 29.5 20.7805 29.3946 20.5929 29.2071C20.4054 29.0196 20.3 28.7652 20.3 28.5ZM17.3 27.5C17.5653 27.5 17.8196 27.6054 18.0072 27.7929C18.1947 27.9804 18.3 28.2348 18.3 28.5C18.3 28.7652 18.1947 29.0196 18.0072 29.2071C17.8196 29.3946 17.5653 29.5 17.3 29.5C17.0348 29.5 16.7805 29.3946 16.5929 29.2071C16.4054 29.0196 16.3 28.7652 16.3 28.5C16.3 28.2348 16.4054 27.9804 16.5929 27.7929C16.7805 27.6054 17.0348 27.5 17.3 27.5Z" fill="white"/>
</g>
</g>
<defs>
<clipPath id="clip0_34_5850">
<rect x="0.800049" width="48" height="48" rx="8" fill="white"/>
</clipPath>
<clipPath id="clip1_34_5850">
<rect width="20" height="16" fill="white" transform="translate(14.8 16)"/>
</clipPath>
</defs>
</svg>
