<svg width="48" height="48" viewBox="0 0 48 48" fill="none" xmlns="http://www.w3.org/2000/svg">
<g clip-path="url(#clip0_28_3936)">
<rect width="48" height="48" rx="8" fill="#C70039"/>
<path d="M-2.37664 27.8649C-15.1885 26.6429 -18.0871 42.9504 -16.6741 47.7028C-4.89841 73.6961 78.4732 22.7525 68.1106 11.5503C57.748 0.348096 46.1136 4.00601 39.5192 18.7725C32.9249 33.5391 13.6382 29.3925 -2.37664 27.8649Z" fill="#B50034"/>
<path d="M10.1521 40.0247C-1.27506 37.3638 -7.24097 48.2404 4.59085 56.9195C47.7841 88.6037 72.8287 44.6327 72.8287 29.9511C72.8287 13.5352 45.9846 -4.42977 44.3514 18.4348C43.6241 28.6162 29.6528 44.5657 10.1521 40.0247Z" fill="#8D0028"/>
<path d="M30 30.5C29.6022 30.5 29.2206 30.342 28.9393 30.0607C28.658 29.7794 28.5 29.3978 28.5 29C28.5 28.6022 28.658 28.2206 28.9393 27.9393C29.2206 27.658 29.6022 27.5 30 27.5C30.3978 27.5 30.7794 27.658 31.0607 27.9393C31.342 28.2206 31.5 28.6022 31.5 29C31.5 29.3978 31.342 29.7794 31.0607 30.0607C30.7794 30.342 30.3978 30.5 30 30.5ZM31.5 21.5L33.46 24H29V21.5M18 30.5C17.6022 30.5 17.2206 30.342 16.9393 30.0607C16.658 29.7794 16.5 29.3978 16.5 29C16.5 28.6022 16.658 28.2206 16.9393 27.9393C17.2206 27.658 17.6022 27.5 18 27.5C18.3978 27.5 18.7794 27.658 19.0607 27.9393C19.342 28.2206 19.5 28.6022 19.5 29C19.5 29.3978 19.342 29.7794 19.0607 30.0607C18.7794 30.342 18.3978 30.5 18 30.5ZM32 20H29V16H15C13.89 16 13 16.89 13 18V29H15C15 29.7956 15.3161 30.5587 15.8787 31.1213C16.4413 31.6839 17.2044 32 18 32C18.7956 32 19.5587 31.6839 20.1213 31.1213C20.6839 30.5587 21 29.7956 21 29H27C27 29.7956 27.3161 30.5587 27.8787 31.1213C28.4413 31.6839 29.2044 32 30 32C30.7956 32 31.5587 31.6839 32.1213 31.1213C32.6839 30.5587 33 29.7956 33 29H35V24L32 20Z" fill="white"/>
</g>
<defs>
<clipPath id="clip0_28_3936">
<rect width="48" height="48" rx="8" fill="white"/>
</clipPath>
</defs>
</svg>
