<svg width="73" height="73" viewBox="0 0 73 73" fill="none" xmlns="http://www.w3.org/2000/svg">
<g clip-path="url(#clip0_44_2175)">
<rect x="0.5" y="0.925781" width="72" height="72" rx="12" fill="#C70039"/>
<path d="M-3.06496 42.7232C-22.2828 40.8901 -26.6307 65.3514 -24.5111 72.48C-6.84761 111.47 118.21 35.0545 102.666 18.2512C87.122 1.44793 69.6704 6.9348 59.7788 29.0846C49.8873 51.2344 20.9574 45.0145 -3.06496 42.7232Z" fill="#B50034"/>
<path d="M15.7281 60.9629C-1.41259 56.9715 -10.3615 73.2864 7.38627 86.305C72.1761 133.831 109.743 67.8748 109.743 45.8524C109.743 21.2286 69.4769 -5.71887 67.0271 28.578C65.9362 43.8501 44.9792 67.7744 15.7281 60.9629Z" fill="#8D0028"/>
<g clip-path="url(#clip1_44_2175)">
<path d="M50 32.5383V32.4258C49.9978 30.3379 49.1674 28.3361 47.691 26.8598C46.2146 25.3834 44.2129 24.553 42.125 24.5508H41C40.4033 24.5508 39.831 24.7878 39.409 25.2098C38.9871 25.6317 38.75 26.204 38.75 26.8008V43.6758H36.5V29.0508C36.5 28.7524 36.3815 28.4663 36.1705 28.2553C35.9595 28.0443 35.6734 27.9258 35.375 27.9258H20.75C20.1533 27.9258 19.581 28.1628 19.159 28.5848C18.7371 29.0067 18.5 29.579 18.5 30.1758V44.8008C18.501 45.7144 18.7801 46.6061 19.3002 47.3572C19.8202 48.1084 20.5566 48.6834 21.4114 49.006C22.2662 49.3285 23.1989 49.3832 24.0855 49.1628C24.9722 48.9424 25.7707 48.4574 26.375 47.7722C26.9152 48.3858 27.6123 48.8407 28.3915 49.088C29.1707 49.3353 30.0025 49.3657 30.7977 49.1759C31.5928 48.986 32.3213 48.5832 32.9047 48.0106C33.4882 47.438 33.9046 46.7172 34.1094 45.9258H45.6406C45.9127 46.9883 46.5634 47.9149 47.4706 48.5315C48.3777 49.148 49.4788 49.412 50.5669 49.2738C51.655 49.1356 52.6551 48.6048 53.3794 47.7811C54.1037 46.9574 54.5022 45.8976 54.5 44.8008V38.0508C54.4984 36.7545 54.05 35.4985 53.2303 34.4943C52.4105 33.4902 51.2697 32.7993 50 32.5383ZM23 47.0508C22.555 47.0508 22.12 46.9188 21.75 46.6716C21.38 46.4244 21.0916 46.073 20.9213 45.6618C20.751 45.2507 20.7064 44.7983 20.7932 44.3618C20.88 43.9254 21.0943 43.5245 21.409 43.2098C21.7237 42.8951 22.1246 42.6808 22.561 42.594C22.9975 42.5072 23.4499 42.5518 23.861 42.722C24.2722 42.8923 24.6236 43.1807 24.8708 43.5507C25.118 43.9208 25.25 44.3558 25.25 44.8008C25.25 45.3975 25.0129 45.9698 24.591 46.3918C24.169 46.8137 23.5967 47.0508 23 47.0508ZM29.75 47.0508C29.305 47.0508 28.87 46.9188 28.5 46.6716C28.13 46.4244 27.8416 46.073 27.6713 45.6618C27.501 45.2507 27.4564 44.7983 27.5432 44.3618C27.63 43.9254 27.8443 43.5245 28.159 43.2098C28.4737 42.8951 28.8746 42.6808 29.311 42.594C29.7475 42.5072 30.1999 42.5518 30.611 42.722C31.0222 42.8923 31.3736 43.1807 31.6208 43.5507C31.868 43.9208 32 44.3558 32 44.8008C32 45.3975 31.7629 45.9698 31.341 46.3918C30.919 46.8137 30.3467 47.0508 29.75 47.0508ZM50 47.0508C49.555 47.0508 49.12 46.9188 48.75 46.6716C48.38 46.4244 48.0916 46.073 47.9213 45.6618C47.751 45.2507 47.7064 44.7983 47.7932 44.3618C47.88 43.9254 48.0943 43.5245 48.409 43.2098C48.7237 42.8951 49.1246 42.6808 49.561 42.594C49.9975 42.5072 50.4499 42.5518 50.861 42.722C51.2722 42.8923 51.6236 43.1807 51.8708 43.5507C52.118 43.9208 52.25 44.3558 52.25 44.8008C52.25 45.3975 52.0129 45.9698 51.591 46.3918C51.169 46.8137 50.5967 47.0508 50 47.0508Z" fill="white"/>
</g>
</g>
<defs>
<clipPath id="clip0_44_2175">
<rect x="0.5" y="0.925781" width="72" height="72" rx="12" fill="white"/>
</clipPath>
<clipPath id="clip1_44_2175">
<rect width="36" height="36" fill="white" transform="translate(18.5 18.9258)"/>
</clipPath>
</defs>
</svg>
